<svg width="64" height="64" viewBox="0 0 200 200" xmlns="http://www.w3.org/2000/svg">
  <defs>
    <linearGradient id="bg" x1="0" y1="0" x2="1" y2="1">
      <stop offset="0%" stop-color="#1a1a2e"/>
      <stop offset="100%" stop-color="#16213e"/>
    </linearGradient>
    <linearGradient id="tooth" x1="0" y1="0" x2="0" y2="1">
      <stop offset="0%" stop-color="#ffffff"/>
      <stop offset="100%" stop-color="#d4e8ff"/>
    </linearGradient>
  </defs>
  <rect width="200" height="200" rx="28" fill="url(#bg)"/>
  <rect width="200" height="5" rx="4" fill="#4f9cf9"/>
  <path d="M100 48 C82 48 70 58 70 73 C70 84 74 90 74 100 C74 116 80 133 88 133 C93 133 96 126 100 118 C104 126 107 133 112 133 C120 133 126 116 126 100 C126 90 130 84 130 73 C130 58 118 48 100 48 Z" fill="url(#tooth)"/>
  <path d="M85 128 C82 140 78 150 76 160" fill="none" stroke="#ffffff" stroke-width="3.5" stroke-linecap="round" opacity="0.7"/>
  <path d="M94 132 C92 144 91 154 90 164" fill="none" stroke="#ffffff" stroke-width="3.5" stroke-linecap="round" opacity="0.7"/>
  <path d="M115 128 C118 140 122 150 124 160" fill="none" stroke="#ffffff" stroke-width="3.5" stroke-linecap="round" opacity="0.7"/>
  <path d="M106 132 C108 144 109 154 110 164" fill="none" stroke="#ffffff" stroke-width="3.5" stroke-linecap="round" opacity="0.7"/>
  <circle cx="90" cy="68" r="4" fill="#4f9cf9" opacity="0.8"/>
</svg>
